<svg width="166" height="73" viewBox="0 0 166 73" fill="none" xmlns="http://www.w3.org/2000/svg">
<path d="M4.08447 32.1417H0V29.9755H10.8076V30.7697C10.8076 31.2752 10.7353 31.6002 10.5546 31.8167C10.3738 32.0333 9.97623 32.1417 9.32561 32.1417H6.75926V42.6834H5.49415C4.98811 42.6834 4.62666 42.5751 4.40978 42.3586C4.1929 42.1419 4.04832 41.7809 4.04832 41.2754V32.1417H4.08447Z" fill="white"/>
<path d="M17.8573 29.6505C19.5562 29.6505 20.8574 30.0476 21.725 30.878C22.6286 31.6722 23.0623 32.9357 23.0623 34.6687V37.9539C23.0623 39.6868 22.6286 40.9504 21.7611 41.7808C20.8935 42.6111 19.5923 43.0082 17.8573 43.0082C16.1946 43.0082 14.8934 42.6111 13.9897 41.8169C13.0861 41.0227 12.6523 39.723 12.6523 37.99V34.6687C12.6523 32.9357 13.0861 31.6722 13.9897 30.878C14.8572 30.0838 16.1585 29.6505 17.8573 29.6505ZM20.3876 34.7048C20.3876 34.3076 20.3513 33.9466 20.2429 33.6217C20.1346 33.2968 19.99 32.9719 19.8092 32.7192C19.5923 32.4665 19.3394 32.2498 19.014 32.1054C18.6888 31.961 18.291 31.8887 17.8573 31.8887C17.0621 31.8887 16.4476 32.1415 16.0139 32.6109C15.544 33.0802 15.3271 33.8022 15.3271 34.7408V38.0262C15.3271 38.9648 15.544 39.6507 15.9778 40.1562C16.4115 40.6616 17.0621 40.9143 17.8573 40.9143C18.6886 40.9143 19.3031 40.6616 19.737 40.1922C20.1707 39.723 20.3876 39.0009 20.3876 38.0262V34.7048Z" fill="white"/>
<path d="M33.9334 36.4738V29.9755H36.6081V42.6834H35.3792C34.8732 42.6834 34.5117 42.5751 34.2587 42.3586C34.0056 42.1419 33.8973 41.7809 33.8973 41.2394V38.64H30.4273C27.5357 38.64 26.0898 37.3403 26.0898 34.7771V29.9755H28.7645V34.7049C28.7645 35.3186 28.9091 35.788 29.1984 36.0407C29.4875 36.2934 29.9212 36.4378 30.4273 36.4378H33.9334V36.4738Z" fill="white"/>
<path d="M42.792 29.9755V42.6834H41.5269C41.0208 42.6834 40.6593 42.5751 40.4426 42.3586C40.2256 42.1419 40.1172 41.7809 40.1172 41.2754V29.9755H42.792ZM43.3703 36.1128C43.8403 35.8963 44.2379 35.6796 44.5631 35.4269C44.8885 35.2104 45.1415 34.9577 45.3584 34.7049C45.5752 34.4522 45.756 34.1633 45.9006 33.8384C46.0452 33.5134 46.1897 33.1886 46.3343 32.7915C46.5512 32.25 46.768 31.7806 46.9849 31.4196C47.2018 31.0587 47.4549 30.7697 47.744 30.5532C48.0331 30.3365 48.3585 30.1922 48.7199 30.1199C49.0813 30.0478 49.4789 29.9755 49.9489 29.9755H51.3947V30.7337C51.3947 31.1668 51.2862 31.4918 51.1056 31.7446C50.9248 31.9973 50.5272 32.1056 49.9128 32.1056C49.8043 32.1056 49.6598 32.1056 49.5513 32.1417C49.4428 32.1777 49.3344 32.25 49.2259 32.3221C49.1176 32.4304 48.9729 32.5748 48.8646 32.7915C48.7561 33.0082 48.6116 33.2969 48.467 33.6218C48.2862 34.1634 48.0331 34.7049 47.7801 35.2464C47.491 35.7879 47.1295 36.2211 46.6234 36.5101L51.5393 42.6113H48.467L43.3703 36.1128Z" fill="white"/>
<path d="M63.2067 42.6834H57.6763C56.339 42.6834 55.2908 42.3946 54.5317 41.8169C53.7726 41.2394 53.375 40.3729 53.375 39.2176V37.8097C53.375 36.4738 53.7726 35.5352 54.5317 34.9577C55.2908 34.3799 56.339 34.0912 57.6763 34.1272C58.2546 34.1272 58.7607 34.1633 59.1582 34.1995C59.5921 34.2356 60.0258 34.2716 60.4958 34.3439V33.5857C60.4958 33.1526 60.3873 32.8276 60.1343 32.5748C59.8812 32.3221 59.4836 32.1777 58.9415 32.1777H55.9414C55.5799 32.1777 55.2908 32.1417 55.0738 32.0694C54.8569 31.9973 54.6762 31.925 54.5678 31.8167C54.4593 31.7085 54.3871 31.5639 54.3509 31.4196C54.3148 31.2752 54.2787 31.0947 54.2787 30.9141V29.9755H58.9415C60.4234 29.9755 61.5077 30.2643 62.1583 30.8781C62.8452 31.4918 63.1705 32.3583 63.1705 33.5134V42.6834H63.2067ZM57.7124 36.4017C57.1703 36.4017 56.7366 36.5101 56.4835 36.7628C56.2305 36.9793 56.086 37.3764 56.086 37.9179V39.1455C56.086 39.4342 56.1221 39.6509 56.2305 39.8313C56.339 40.012 56.4475 40.1563 56.6281 40.2645C56.8088 40.3729 56.9535 40.4451 57.1703 40.4812C57.3511 40.5172 57.5318 40.5535 57.7124 40.5535H60.5319V36.6182C59.9897 36.5461 59.4836 36.5101 59.0137 36.4738C58.5439 36.4017 58.11 36.4017 57.7124 36.4017Z" fill="white"/>
<path d="M76.0927 29.9755V42.6834H74.8277C74.3216 42.6834 73.9601 42.5751 73.7432 42.3586C73.5264 42.1419 73.418 41.7809 73.418 41.2754V29.9755H76.0927ZM76.6711 36.1128C77.1409 35.8963 77.5385 35.6796 77.8639 35.4269C78.1891 35.2104 78.4421 34.9577 78.6591 34.7049C78.876 34.4522 79.0566 34.1633 79.2012 33.8384C79.3458 33.5134 79.4903 33.1886 79.6351 32.7915C79.8518 32.25 80.0688 31.7806 80.2857 31.4196C80.5025 31.0587 80.7555 30.7697 81.0446 30.5532C81.3339 30.3365 81.6591 30.1922 82.0206 30.1199C82.3821 30.0478 82.7797 29.9755 83.2495 29.9755H84.6953V30.7337C84.6953 31.1668 84.587 31.4918 84.4062 31.7446C84.2255 31.9973 83.8279 32.1056 83.2134 32.1056C83.105 32.1056 82.9604 32.1056 82.8519 32.1417C82.7436 32.1777 82.6352 32.25 82.5267 32.3221C82.4182 32.4304 82.2737 32.5748 82.1652 32.7915C82.0567 33.0082 81.9122 33.2969 81.7676 33.6218C81.5869 34.1634 81.3339 34.7049 81.0809 35.2464C80.7916 35.7879 80.4303 36.2211 79.9242 36.5101L84.8401 42.6113H81.7676L76.6711 36.1128Z" fill="white"/>
<path d="M87.1211 29.9755H89.7958V39.5426C90.6994 37.9902 91.567 36.4017 92.4706 34.741C93.3743 33.0803 94.2418 31.4918 95.1455 29.9755H98.0371V42.6834H96.8081C96.302 42.6834 95.9407 42.5751 95.6877 42.3586C95.4707 42.1419 95.3262 41.7809 95.3262 41.3115V34.1272L91.3501 41.456C91.1333 41.8169 90.844 42.1059 90.5188 42.3586C90.1573 42.5751 89.7597 42.6834 89.2897 42.6834H88.5669C87.5909 42.6834 87.1211 42.2502 87.1211 41.4198V29.9755Z" fill="white"/>
<path d="M111.255 29.9755V42.6834H110.026C109.52 42.6834 109.158 42.5751 108.905 42.3586C108.652 42.1419 108.544 41.7809 108.544 41.2394V32.1417H103.953V42.6834H102.76C102.218 42.6834 101.821 42.5751 101.604 42.3586C101.387 42.1419 101.242 41.7809 101.242 41.2394V29.9755H111.255Z" fill="white"/>
<path d="M123.699 40.4811V41.4198C123.699 41.6002 123.699 41.7808 123.663 41.9252C123.627 42.0696 123.554 42.214 123.446 42.3223C123.337 42.4307 123.157 42.5028 122.94 42.575C122.723 42.6472 122.434 42.6834 122.072 42.6834H118.53C117.156 42.6834 116.072 42.3223 115.241 41.5642C114.409 40.842 114.012 39.8313 114.012 38.5316V34.2355C114.012 33.4051 114.156 32.7192 114.409 32.1415C114.662 31.5639 115.024 31.0945 115.494 30.6974C115.964 30.3364 116.47 30.0476 117.084 29.9032C117.699 29.7227 118.349 29.6505 119 29.6505C119.723 29.6505 120.409 29.7588 121.06 29.9392C121.675 30.1199 122.217 30.4086 122.687 30.7336C123.157 31.0945 123.482 31.5279 123.735 32.0333C123.988 32.5748 124.133 33.1524 124.133 33.8022V35.4629C124.133 36.0044 123.988 36.4738 123.663 36.8347C123.337 37.1958 122.831 37.3764 122.145 37.3764H116.723V38.4954C116.723 39.1092 116.904 39.5786 117.265 39.9395C117.626 40.2645 118.06 40.4449 118.53 40.4449H123.699V40.4811ZM116.723 35.2463H121.132C121.241 35.2463 121.349 35.2102 121.422 35.1379C121.494 35.0658 121.53 34.9575 121.53 34.8131V33.8383C121.53 33.2246 121.313 32.7552 120.916 32.3942C120.482 32.0333 119.904 31.8527 119.072 31.8527C118.349 31.8527 117.807 32.0333 117.373 32.3942C116.94 32.7552 116.723 33.2246 116.723 33.8383V35.2463Z" fill="white"/>
<path d="M137.719 29.9755V42.6834H136.49C135.947 42.6834 135.586 42.5751 135.369 42.3586C135.152 42.1419 135.044 41.7809 135.044 41.2754V36.4378C134.574 36.7988 133.996 36.9793 133.309 36.9793H129.839V42.6834H128.61C128.068 42.6834 127.706 42.5751 127.489 42.3586C127.273 42.1419 127.164 41.7809 127.164 41.2754V29.9755H129.839V34.7771H135.044V29.9755H137.719Z" fill="white"/>
<path d="M141.219 29.9755H143.893V39.5426C144.797 37.9902 145.665 36.4017 146.568 34.741C147.472 33.0803 148.339 31.4918 149.243 29.9755H152.135V42.6834H150.906C150.4 42.6834 150.038 42.5751 149.785 42.3586C149.568 42.1419 149.424 41.7809 149.424 41.3115V34.1272L145.448 41.456C145.231 41.8169 144.942 42.1059 144.616 42.3586C144.255 42.5751 143.857 42.6834 143.388 42.6834H142.665C141.689 42.6834 141.219 42.2502 141.219 41.4198V29.9755Z" fill="white"/>
<path d="M160.272 37.6291L157.416 42.6834H154.488L157.524 37.3403C157.018 37.232 156.621 37.0514 156.259 36.7987C155.934 36.5459 155.645 36.2572 155.428 35.9323C155.211 35.6073 155.067 35.2464 154.958 34.8854C154.85 34.4883 154.814 34.1272 154.814 33.694C154.814 32.5025 155.211 31.5639 156.006 30.9141C156.801 30.2643 158.031 29.9394 159.657 29.9394H165.585V42.9722H164.356C163.85 42.9722 163.489 42.8638 163.236 42.6472C163.018 42.4307 162.875 42.0696 162.875 41.5281V37.5568H160.272V37.6291ZM159.693 32.1777C158.934 32.1777 158.392 32.286 158.031 32.5388C157.669 32.7915 157.488 33.1886 157.488 33.7662C157.488 34.452 157.669 34.9214 158.031 35.1381C158.392 35.3546 158.934 35.4629 159.657 35.4629H162.91V32.2138H159.693V32.1777Z" fill="white"/>
<path fill-rule="evenodd" clip-rule="evenodd" d="M80.9771 19.5415C86.1098 19.5415 90.2665 15.3538 90.2665 10.2634C90.2665 5.13694 86.0737 0.985214 80.9771 0.985214C75.8445 0.985214 71.6877 5.17303 71.6877 10.2634C71.6515 15.3899 75.8445 19.5415 80.9771 19.5415Z" fill="white"/>
<path d="M80.9771 71.3839C86.1074 71.3839 90.2664 67.2299 90.2664 62.1058C90.2664 56.9816 86.1074 52.8277 80.9771 52.8277C75.8465 52.8277 71.6875 56.9816 71.6875 62.1058C71.6875 67.2299 75.8465 71.3839 80.9771 71.3839Z" fill="white"/>
<path d="M77.5313 50.8059C79.1085 50.8059 80.3868 49.5289 80.3868 47.9539C80.3868 46.3788 79.1085 45.1018 77.5313 45.1018C75.9543 45.1018 74.6758 46.3788 74.6758 47.9539C74.6758 49.5289 75.9543 50.8059 77.5313 50.8059Z" fill="white"/>
<path d="M68.2361 24.2702C70.4239 22.0849 70.4239 18.5419 68.2361 16.3566C66.0481 14.1713 62.5007 14.1713 60.3129 16.3566C58.1249 18.5419 58.1249 22.0849 60.3129 24.2702C62.5007 26.4554 66.0481 26.4554 68.2361 24.2702Z" fill="white"/>
<path d="M100.429 24.3736C102.998 21.8076 102.998 17.6473 100.429 15.0814C97.8604 12.5155 93.6951 12.5155 91.1259 15.0814C88.557 17.6473 88.557 21.8076 91.1259 24.3736C93.6951 26.9394 97.8602 26.9394 100.429 24.3736Z" fill="white"/>
<path d="M102.8 56.3506C105.369 53.7845 105.369 49.6244 102.8 47.0584C100.231 44.4926 96.0662 44.4926 93.497 47.0584C90.9281 49.6244 90.9281 53.7845 93.497 56.3506C96.0662 58.9164 100.231 58.9164 102.8 56.3506Z" fill="white"/>
<path d="M70.7848 57.2481C73.3538 54.6822 73.3538 50.522 70.7848 47.956C68.2157 45.3901 64.0505 45.3901 61.4814 47.956C58.9124 50.522 58.9124 54.6822 61.4814 57.2481C64.0505 59.8141 68.2157 59.814 70.7848 57.2481Z" fill="white"/>
<path d="M112.223 24.1704C114.016 22.3799 114.016 19.4768 112.223 17.6864C110.43 15.8959 107.524 15.8959 105.731 17.6864C103.939 19.4768 103.939 22.3799 105.731 24.1704C107.524 25.9609 110.43 25.9609 112.223 24.1704Z" fill="white"/>
<path d="M100.549 10.5415C101.974 9.11751 101.974 6.80881 100.549 5.38486C99.1229 3.96091 96.8114 3.96091 95.3858 5.38486C93.9599 6.80881 93.9599 9.11751 95.3858 10.5415C96.8114 11.9654 99.1229 11.9654 100.549 10.5415Z" fill="white"/>
<path d="M99.4615 67.413C101.254 65.6225 101.254 62.7194 99.4615 60.9289C97.6689 59.1385 94.7622 59.1383 92.9696 60.9289C91.1768 62.7194 91.1768 65.6225 92.9696 67.413C94.7622 69.2034 97.6689 69.2034 99.4615 67.413Z" fill="white"/>
<path d="M113.228 55.0376C114.654 53.6136 114.654 51.305 113.228 49.8811C111.802 48.4571 109.491 48.4571 108.065 49.8811C106.64 51.305 106.64 53.6136 108.065 55.0376C109.491 56.4615 111.802 56.4615 113.228 55.0376Z" fill="white"/>
<path d="M56.1645 55.3886C57.9571 53.5981 57.9571 50.695 56.1645 48.9046C54.3719 47.1141 51.4652 47.1141 49.6726 48.9046C47.88 50.695 47.88 53.5981 49.6726 55.3886C51.4652 57.179 54.3719 57.179 56.1645 55.3886Z" fill="white"/>
<path d="M66.533 66.9964C67.9586 65.5725 67.9586 63.2639 66.533 61.8399C65.1071 60.416 62.7957 60.416 61.37 61.8399C59.9444 63.2639 59.9444 65.5725 61.37 66.9964C62.7957 68.4204 65.1071 68.4204 66.533 66.9964Z" fill="white"/>
<path d="M68.9301 11.4252C70.7228 9.63472 70.7228 6.73173 68.9301 4.94122C67.1375 3.15071 64.2309 3.15069 62.4382 4.94122C60.6456 6.73173 60.6456 9.63472 62.4382 11.4253C64.2309 13.2158 67.1375 13.2158 68.9301 11.4252Z" fill="white"/>
<path d="M54.5562 23.1837C55.9821 21.7597 55.9821 19.4511 54.5562 18.0272C53.1306 16.6031 50.8191 16.6031 49.3935 18.0272C47.9678 19.4511 47.9678 21.7597 49.3935 23.1837C50.8191 24.6076 53.1306 24.6076 54.5562 23.1837Z" fill="white"/>
<path d="M56.8855 14.2727C58.004 13.9734 58.6677 12.8253 58.3679 11.7083C58.0683 10.5913 56.9189 9.92836 55.8004 10.2277C54.6821 10.5269 54.0184 11.6751 54.318 12.7921C54.6178 13.9091 55.7672 14.572 56.8855 14.2727Z" fill="white"/>
<path d="M93.4839 4.13761C94.1335 3.48885 94.1335 2.43699 93.4839 1.78824C92.8344 1.13947 91.7813 1.13948 91.1317 1.78824C90.4821 2.43699 90.4821 3.48885 91.1317 4.13761C91.7813 4.78636 92.8344 4.78636 93.4839 4.13761Z" fill="white"/>
<path d="M106.708 14.4585C107.846 14.154 108.521 12.9861 108.216 11.8498C107.912 10.7136 106.742 10.0392 105.605 10.3437C104.467 10.6481 103.792 11.8161 104.097 12.9523C104.401 14.0886 105.571 14.7629 106.708 14.4585Z" fill="white"/>
<path d="M106.029 62.6099C107.109 62.3209 107.75 61.2123 107.46 60.1338C107.171 59.0553 106.061 58.4153 104.981 58.7043C103.901 58.9934 103.261 60.1018 103.55 61.1803C103.839 62.2588 104.949 62.8988 106.029 62.6099Z" fill="white"/>
<path d="M92.5601 70.2667C92.7772 69.4575 92.2963 68.6258 91.4863 68.4091C90.6762 68.1922 89.8435 68.6723 89.6263 69.4815C89.4093 70.2907 89.8901 71.1223 90.7002 71.3393C91.5103 71.556 92.3431 71.0758 92.5601 70.2667Z" fill="white"/>
<path d="M72.5578 70.9045C73.4047 70.0586 73.4047 68.6872 72.5578 67.8413C71.7109 66.9954 70.3376 66.9954 69.4907 67.8413C68.6437 68.6872 68.6437 70.0586 69.4907 70.9045C70.3376 71.7506 71.7109 71.7506 72.5578 70.9045Z" fill="white"/>
<path d="M57.6537 62.5867C58.6952 62.3079 59.3133 61.2386 59.0343 60.1982C58.7552 59.1579 57.6847 58.5406 56.643 58.8193C55.6014 59.098 54.9832 60.1673 55.2623 61.2076C55.5414 62.248 56.6121 62.8654 57.6537 62.5867Z" fill="white"/>
<path d="M75.9748 22.2273C76.8359 21.3674 76.8359 19.9731 75.9748 19.113C75.1139 18.253 73.7177 18.253 72.8568 19.113C71.9957 19.9731 71.9957 21.3674 72.8568 22.2273C73.7177 23.0874 75.1139 23.0874 75.9748 22.2273Z" fill="white"/>
<path d="M88.8606 53.066C89.623 52.3045 89.623 51.0697 88.8606 50.3081C88.098 49.5464 86.8617 49.5464 86.0992 50.3081C85.3367 51.0697 85.3367 52.3045 86.0992 53.066C86.8617 53.8276 88.098 53.8276 88.8606 53.066Z" fill="white"/>
<path d="M68.0769 42.9929C68.6698 42.4005 68.6698 41.4401 68.0769 40.8477C67.4837 40.2555 66.5222 40.2555 65.9291 40.8477C65.3361 41.4401 65.3361 42.4005 65.9292 42.9929C66.5222 43.5852 67.4837 43.5852 68.0769 42.9929Z" fill="white"/>
<path d="M85.4529 27.1287C87.0533 26.7003 88.0032 25.0575 87.5744 23.4589C87.1455 21.8605 85.5005 20.9119 83.9001 21.3402C82.2997 21.7684 81.35 23.4114 81.7787 25.0098C82.2076 26.6084 83.8526 27.557 85.4529 27.1287Z" fill="white"/>
<path d="M72.3431 3.24371C73.1339 3.03206 73.6032 2.22017 73.3914 1.43029C73.1795 0.64041 72.3666 0.171651 71.5757 0.383289C70.7849 0.594927 70.3156 1.40682 70.5274 2.1967C70.7393 2.98659 71.5521 3.45535 72.3431 3.24371Z" fill="white"/>
<path d="M57.5993 47.4191C58.6791 47.1301 59.3199 46.0215 59.0306 44.943C58.7413 43.8645 57.6314 43.2245 56.5515 43.5135C55.4717 43.8026 54.8309 44.911 55.1202 45.9895C55.4097 47.068 56.5195 47.708 57.5993 47.4191Z" fill="white"/>
<path d="M115.942 47.9823C116.656 47.7914 117.079 47.0587 116.888 46.3458C116.697 45.6331 115.963 45.2101 115.25 45.4011C114.536 45.5921 114.113 46.3247 114.304 47.0376C114.495 47.7503 115.228 48.1733 115.942 47.9823Z" fill="white"/>
</svg>
